<?xml version="1.0"?>
<svg xmlns="http://www.w3.org/2000/svg" xmlns:xlink="http://www.w3.org/1999/xlink" id="Gradient" viewBox="0 0 512 512" width="512" height="512"><defs><linearGradient id="linear-gradient" x1="256" y1="496" x2="256" y2="16" gradientUnits="userSpaceOnUse"><stop offset="0" stop-color="#12c2e9"/><stop offset="0.5" stop-color="#c471ed"/><stop offset="1" stop-color="#f64f59"/></linearGradient></defs><path d="M360,16H88a8,8,0,0,0-8,8V488a8,8,0,0,0,8,8H424a8,8,0,0,0,8-8V88a8,8,0,0,0-2.343-5.657l-64-64A8,8,0,0,0,360,16Zm8,27.313L404.687,80H368ZM96,480V32H352V88a8,8,0,0,0,8,8h56V480ZM120,72a8,8,0,0,1,8-8h88a8,8,0,0,1,0,16H128A8,8,0,0,1,120,72Zm0,32a8,8,0,0,1,8-8H248a8,8,0,0,1,0,16H128A8,8,0,0,1,120,104Zm272,48a8,8,0,0,1-8,8H176a8,8,0,0,1,0-16H384A8,8,0,0,1,392,152Zm0,256a8,8,0,0,1-8,8H296a8,8,0,0,1,0-16h88A8,8,0,0,1,392,408ZM192,376a8,8,0,0,1-8,8H128a8,8,0,0,1,0-16h56A8,8,0,0,1,192,376Zm72,0a8,8,0,0,1-8,8H216a8,8,0,0,1,0-16h40A8,8,0,0,1,264,376Zm128,64a8,8,0,0,1-8,8H344a8,8,0,0,1,0-16h40A8,8,0,0,1,392,440ZM245.979,228.533a8,8,0,0,0-14.42,0l-30.769,64a8,8,0,1,0,14.42,6.934L224.569,280h28.4l9.359,19.467a8,8,0,0,0,14.42-6.934ZM232.261,264l6.508-13.537L245.277,264ZM312,248a8,8,0,0,1,0,16h-8v8a8,8,0,0,1-16,0v-8h-8a8,8,0,0,1,0-16h8v-8a8,8,0,0,1,16,0v8Zm80-64a8,8,0,0,0-8-8H294.345a95.9,95.9,0,0,0-76.69,0H128a8,8,0,0,0,0,16h64.577a96.78,96.78,0,0,0-14.5,16H128a8,8,0,0,0,0,16h40.741a95.259,95.259,0,0,0-5.7,16H128a8,8,0,0,0,0,16h32.336c-.219,2.639-.336,5.306-.336,8s.117,5.361.336,8H128a8,8,0,0,0,0,16h35.037a95.259,95.259,0,0,0,5.7,16H128a8,8,0,0,0,0,16h48a8,8,0,0,0,1.9-.237A96.775,96.775,0,0,0,192.577,336H128a8,8,0,0,0,0,16h88a8.02,8.02,0,0,0,1.369-.125,95.9,95.9,0,0,0,77.262,0A8.02,8.02,0,0,0,296,352h72a8,8,0,0,0,0-16H319.423a96.78,96.78,0,0,0,14.5-16H384a8,8,0,0,0,0-16H343.259a95.259,95.259,0,0,0,5.7-16H384a8,8,0,0,0,0-16H351.664c.219-2.639.336-5.306.336-8s-.117-5.361-.336-8H384a8,8,0,0,0,0-16H348.963a95.259,95.259,0,0,0-5.7-16H384a8,8,0,0,0,0-16H336a8,8,0,0,0-1.9.237A96.775,96.775,0,0,0,319.423,192H384A8,8,0,0,0,392,184Zm-56,80a80,80,0,1,1-80-80A80.091,80.091,0,0,1,336,264Z" style="fill:url(#linear-gradient)"/></svg>
