<svg id="swatch-options" enable-background="new 0 0 300 300" height="512" viewBox="0 0 300 300" width="512" xmlns="http://www.w3.org/2000/svg" xmlns:xlink="http://www.w3.org/1999/xlink"><linearGradient id="SVGID_1_" gradientUnits="userSpaceOnUse" x1="47.171" x2="252.829" y1="268.829" y2="63.171"><stop offset="0" stop-color="#107eff"/><stop offset="1" stop-color="#8f16ff"/></linearGradient><g><path d="m170 54c6.617 0 12-5.383 12-12s-5.383-12-12-12-12 5.383-12 12 5.383 12 12 12zm0-16c2.205 0 4 1.793 4 4s-1.795 4-4 4-4-1.793-4-4 1.795-4 4-4zm-48 12c0-2.209 1.791-4 4-4s4 1.791 4 4-1.791 4-4 4-4-1.791-4-4zm128 12h-200c-2.209 0-4 1.789-4 4v200c0 2.211 1.791 4 4 4h200c2.209 0 4-1.789 4-4v-200c0-2.211-1.791-4-4-4zm-4 200h-192v-192h192zm-184-12v-168c0-2.211 1.791-4 4-4h168c2.209 0 4 1.789 4 4v168c0 2.211-1.791 4-4 4h-28c-2.209 0-4-1.789-4-4s1.791-4 4-4h24v-160h-160v160h108c2.209 0 4 1.789 4 4s-1.791 4-4 4h-112c-2.209 0-4-1.789-4-4zm52-144c0-2.211-1.791-4-4-4h-24c-2.209 0-4 1.789-4 4v24c0 2.211 1.791 4 4 4h24c2.209 0 4-1.789 4-4zm12 28h88c2.209 0 4-1.789 4-4v-12c0-2.211-1.791-4-4-4h-88c-2.209 0-4 1.789-4 4v12c0 2.211 1.791 4 4 4zm-12 16c0-2.211-1.791-4-4-4h-24c-2.209 0-4 1.789-4 4v24c0 2.211 1.791 4 4 4h24c2.209 0 4-1.789 4-4zm-8 20h-16v-16h16zm16 4c0 2.211 1.791 4 4 4h88c2.209 0 4-1.789 4-4v-12c0-2.211-1.791-4-4-4h-88c-2.209 0-4 1.789-4 4zm8-8h80v4h-80zm-20 24h-24c-2.209 0-4 1.789-4 4v24c0 2.211 1.791 4 4 4h24c2.209 0 4-1.789 4-4v-24c0-2.211-1.791-4-4-4zm-4 24h-16v-16h16zm16 4c0 2.211 1.791 4 4 4h88c2.209 0 4-1.789 4-4v-12c0-2.211-1.791-4-4-4h-88c-2.209 0-4 1.789-4 4zm8-8h80v4h-80z" fill="url(#SVGID_1_)"/></g></svg>