<?xml version="1.0"?>
<svg xmlns="http://www.w3.org/2000/svg" xmlns:xlink="http://www.w3.org/1999/xlink" id="Gradient" viewBox="0 0 512 512" width="512" height="512"><defs><linearGradient id="linear-gradient" x1="256" y1="496" x2="256" y2="16" gradientUnits="userSpaceOnUse"><stop offset="0" stop-color="#12c2e9"/><stop offset="0.5" stop-color="#c471ed"/><stop offset="1" stop-color="#f64f59"/></linearGradient></defs><path d="M288,184a8,8,0,1,1,8,8A8,8,0,0,1,288,184Zm-72,8a8,8,0,1,0-8-8A8,8,0,0,0,216,192Zm32,16h16a8,8,0,0,0,0-16h-8v-8a8,8,0,0,0-16,0v16A8,8,0,0,0,248,208Zm8,40c34.932,0,46.893-27.742,47.385-28.923a8,8,0,1,0-14.77-6.154C288.536,213.114,280.385,232,256,232c-23.956,0-32.248-18.238-32.636-19.126a8,8,0,0,0-14.749,6.2C209.107,220.258,221.068,248,256,248ZM88,488V312a40.067,40.067,0,0,1,32-39.195V248a39.885,39.885,0,0,1,12.557-29.061A39.99,39.99,0,0,1,144,144.805V144a112.243,112.243,0,0,1,1.75-19.788A63.982,63.982,0,0,1,236.213,33.75,112.06,112.06,0,0,1,368,144v.805a39.99,39.99,0,0,1,11.443,74.134A39.885,39.885,0,0,1,392,248v24.805A40.068,40.068,0,0,1,424,312V488a8,8,0,0,1-8,8H96A8,8,0,0,1,88,488Zm72-328v16a96,96,0,0,0,192,0V160Zm216,88a24.04,24.04,0,0,0-19.061-23.487A112.786,112.786,0,0,1,313.631,272H376ZM149.856,416A5.863,5.863,0,0,0,144,421.856v20.288A5.863,5.863,0,0,0,149.856,448H176V416ZM184,464v16h64V425.888l-47.155-94.31.008,0A7.985,7.985,0,0,1,200,328V288H184V400a8,8,0,0,1,8,8v48A8,8,0,0,1,184,464Zm87.681-89.251L265.223,336H246.777l-6.458,38.749L256,406.111ZM248,320h16V299.313l-8-8-8,8Zm-32-32v20.687L236.687,288Zm1.734,41.58,10.419,20.838L232,327.338V315.313Zm76.532,0L280,315.314v12.021l3.847,23.082ZM296,288H275.313L296,308.687ZM264,480h64V464a8,8,0,0,1-8-8V408a8,8,0,0,1,8-8V288H312v40a7.985,7.985,0,0,1-.853,3.573l.008,0L264,425.888Zm98.144-32A5.863,5.863,0,0,0,368,442.144V421.856A5.863,5.863,0,0,0,362.144,416H336v32ZM344,480h16V464H344Zm16-192H344V400h16ZM155.061,224.513A24.04,24.04,0,0,0,136,248v24h62.369A112.786,112.786,0,0,1,155.061,224.513ZM152,288V400h16V288Zm0,192h16V464H152ZM384,288h-8V404.967a21.822,21.822,0,0,1,8,16.889v20.288a21.822,21.822,0,0,1-8,16.889V480h32V312A24.027,24.027,0,0,0,384,288ZM368,161.376V176a111.652,111.652,0,0,1-4.592,31.754A24,24,0,0,0,368,161.376ZM256,48a96.108,96.108,0,0,0-96,96h24v-8a8,8,0,0,1,16,0v8h24v-8a8,8,0,0,1,16,0v8h32v-8a8,8,0,0,1,16,0v8h24v-8a8,8,0,0,1,16,0v8h24A96.108,96.108,0,0,0,256,48ZM151.006,105.008a112.586,112.586,0,0,1,66-66,48.03,48.03,0,0,0-66,66ZM128,184a24.035,24.035,0,0,0,20.592,23.754A111.652,111.652,0,0,1,144,176V161.376A24.039,24.039,0,0,0,128,184ZM104,480h32V459.033a21.822,21.822,0,0,1-8-16.889V421.856a21.822,21.822,0,0,1,8-16.889V288h-8a24.027,24.027,0,0,0-24,24Z" style="fill:url(#linear-gradient)"/></svg>
