<svg id="Gradient" height="512" viewBox="0 0 512 512" width="512" xmlns="http://www.w3.org/2000/svg" xmlns:xlink="http://www.w3.org/1999/xlink"><linearGradient id="linear-gradient" gradientUnits="userSpaceOnUse" x1="256" x2="256" y1="504" y2="40"><stop offset="0" stop-color="#12c2e9"/><stop offset=".5" stop-color="#c471ed"/><stop offset="1" stop-color="#f64f59"/></linearGradient><path d="m488 64h-24v-16a8 8 0 0 0 -8-8h-168a39.964 39.964 0 0 0 -32 16.028 39.964 39.964 0 0 0 -32-16.028h-168a8 8 0 0 0 -8 8v16h-24a8 8 0 0 0 -8 8v312a8 8 0 0 0 8 8h328v88a24.028 24.028 0 0 0 24 24h32a24.028 24.028 0 0 0 24-24v-88h56a8 8 0 0 0 8-8v-312a8 8 0 0 0 -8-8zm-424 264h160a24.039 24.039 0 0 1 22.624 16h-182.624zm317.536-128h20.928l10.493 32h-41.914zm5.247-16 5.217-15.91 5.217 15.91zm-34.783 160h-86.624a24.039 24.039 0 0 1 22.624-16h64zm16-96h16v160h-16zm0 176h48v16h-48zm48-16h-16v-160h16zm16-80h16v16h-16zm-144-272h160v256h-16v-72c0-.138-.014-.272-.021-.408 0-.1-.006-.2-.015-.3a8.045 8.045 0 0 0 -.115-.828c0-.012 0-.024-.006-.036a7.791 7.791 0 0 0 -.234-.889l-.007-.03-24.411-74.44a15.959 15.959 0 0 0 -30.382 0l-24.409 74.438-.007.03a7.791 7.791 0 0 0 -.234.889c0 .012 0 .024-.006.036a8.045 8.045 0 0 0 -.115.828c-.009.1-.01.2-.015.3-.007.136-.021.27-.021.408v72h-64.002a39.788 39.788 0 0 0 -24 8.022v-240.02a24.028 24.028 0 0 1 24-24zm-224 0h160a24.028 24.028 0 0 1 24 24v240.019a39.792 39.792 0 0 0 -24-8.019h-160zm-32 320v-296h16v272a8 8 0 0 0 8 8h296v16zm384 104a8.009 8.009 0 0 1 -8 8h-32a8.009 8.009 0 0 1 -8-8v-24h48zm64-104h-48v-16h24a8 8 0 0 0 8-8v-272h16zm-400-160a8 8 0 0 1 8-8h80a8 8 0 0 1 0 16h-80a8 8 0 0 1 -8-8zm152 0a8 8 0 0 1 -8 8h-24a8 8 0 0 1 0-16h24a8 8 0 0 1 8 8zm-8 72h-80a8 8 0 0 1 0-16h80a8 8 0 0 1 0 16zm-104-8a8 8 0 0 1 -8 8h-24a8 8 0 0 1 0-16h24a8 8 0 0 1 8 8zm-40-32a8 8 0 0 1 8-8h136a8 8 0 0 1 0 16h-136a8 8 0 0 1 -8-8zm64-64a8 8 0 0 1 8-8h72a8 8 0 0 1 0 16h-72a8 8 0 0 1 -8-8zm0-32a8 8 0 0 1 8-8h72a8 8 0 0 1 0 16h-72a8 8 0 0 1 -8-8zm192-64a8 8 0 0 1 8-8h80a8 8 0 0 1 0 16h-80a8 8 0 0 1 -8-8zm-56 0a8 8 0 0 1 8-8h24a8 8 0 0 1 0 16h-24a8 8 0 0 1 -8-8zm0 64a8 8 0 0 1 8-8h64a8 8 0 0 1 0 16h-64a8 8 0 0 1 -8-8zm0-32a8 8 0 0 1 8-8h136a8 8 0 0 1 0 16h-136a8 8 0 0 1 -8-8zm0 96a8 8 0 0 1 8-8h40a8 8 0 0 1 0 16h-40a8 8 0 0 1 -8-8zm0 64a8 8 0 0 1 8-8h40a8 8 0 0 1 0 16h-40a8 8 0 0 1 -8-8zm0-32a8 8 0 0 1 8-8h40a8 8 0 0 1 0 16h-40a8 8 0 0 1 -8-8zm0-64a8 8 0 0 1 8-8h56a8 8 0 0 1 0 16h-56a8 8 0 0 1 -8-8zm-192-56h32a8 8 0 0 0 8-8v-32a8 8 0 0 0 -8-8h-32a8 8 0 0 0 -8 8v32a8 8 0 0 0 8 8zm8-32h16v16h-16zm-8 96h32a8 8 0 0 0 8-8v-32a8 8 0 0 0 -8-8h-32a8 8 0 0 0 -8 8v32a8 8 0 0 0 8 8zm8-32h16v16h-16zm48-40a8 8 0 0 1 8-8h72a8 8 0 0 1 0 16h-72a8 8 0 0 1 -8-8zm0-32a8 8 0 0 1 8-8h72a8 8 0 0 1 0 16h-72a8 8 0 0 1 -8-8z" fill="url(#linear-gradient)"/></svg>